# xmcd
#
# Track frame offsets:
#	150
#	16505
#	45038
#	62360
#	78965
#	108040
#	125185
#	159498
#	191379
#	222641
#	251152
#	277474
#	307022
#	331693
#
# Disc length: 4607 seconds
#
# Revision: 1
# Processed by: cddbd v1.5.2PL0 Copyright (c) Steve Scherf et al.
# Submitted via: audiograbber 1.83.01
#
DISCID=b911fd0e
DTITLE=Various Artist - Techno Charts 2003.1
DYEAR=2003
DGENRE=Techno
TTITLE0=Cenoginerz - You Like The Bass (www.djzany.nl Remix)
TTITLE1=Trackhackers - Ooops Up ! (Barbarez RMX)
TTITLE2=DJ Session One - Dreams In My Fantasy 2003 (Blutonium Boy Radio Mix)
TTITLE3=Bush - Testflight (Part One)
TTITLE4=Tinitus - Direct Disco 2003
TTITLE5=Miquele - Brothers and Sisters (Norman Freeman Hands Up Mix)
TTITLE6=Bobby V. - Energy (Espuma Phuture Club Mix)
TTITLE7=DJ Rodd-Y-Ler - Feel (Club Mix)
TTITLE8=DJ Merlin and NXP - Deep In My Mind (Barbarez RMX)
TTITLE9=DJ Loop vs. Hardliner - Rainbow (Christoph Menzi Mix)
TTITLE10=E-Static - Bigger And Tougher (H.A.Z.A.R.D. Mix)
TTITLE11=Paragod - E.F.F.E.C.T.
TTITLE12=Airtribe - Sunflower (Gary D's Hardstyle Mix)
TTITLE13=Tom Wilson - Techno Cat 3002
EXTD=
EXTT0=
EXTT1=
EXTT2=
EXTT3=
EXTT4=
EXTT5=
EXTT6=
EXTT7=
EXTT8=
EXTT9=
EXTT10=
EXTT11=
EXTT12=
EXTT13=
PLAYORDER=
